<?xml version="1.0" encoding="UTF-8" standalone="no"?>
<!DOCTYPE svg PUBLIC "-//W3C//DTD SVG 1.1//EN"
 "http://www.w3.org/Graphics/SVG/1.1/DTD/svg11.dtd">
<!-- Generated by graphviz version 2.43.0 (0)
 -->
<!-- Title: pipeline Pages: 1 -->
<svg width="458pt" height="335pt"
 viewBox="0.00 0.00 458.00 335.00" xmlns="http://www.w3.org/2000/svg" xmlns:xlink="http://www.w3.org/1999/xlink">
<g id="graph0" class="graph" transform="scale(1 1) rotate(0) translate(4 331)">
<title>pipeline</title>
<polygon fill="white" stroke="transparent" points="-4,4 -4,-331 454,-331 454,4 -4,4"/>
<g id="clust1" class="cluster">
<title>cluster_numeric</title>
<polygon fill="none" stroke="black" stroke-dasharray="5,2" points="8,-64 8,-283 208,-283 208,-64 8,-64"/>
<text text-anchor="middle" x="108" y="-267.8" font-family="Times,serif" font-size="14.00">Numeric pipeline</text>
</g>
<g id="clust2" class="cluster">
<title>cluster_categorical</title>
<polygon fill="none" stroke="black" stroke-dasharray="5,2" points="216,-64 216,-283 442,-283 442,-64 216,-64"/>
<text text-anchor="middle" x="329" y="-267.8" font-family="Times,serif" font-size="14.00">Categorical pipeline</text>
</g>
<!-- features -->
<g id="node1" class="node">
<title>features</title>
<ellipse fill="none" stroke="black" cx="218" cy="-309" rx="49.29" ry="18"/>
<text text-anchor="middle" x="218" y="-305.3" font-family="Times,serif" font-size="14.00">features</text>
</g>
<!-- numeric_features -->
<g id="node2" class="node">
<title>numeric_features</title>
<ellipse fill="none" stroke="black" cx="108" cy="-234" rx="91.78" ry="18"/>
<text text-anchor="middle" x="108" y="-230.3" font-family="Times,serif" font-size="14.00">numeric_features</text>
</g>
<!-- features&#45;&gt;numeric_features -->
<g id="edge1" class="edge">
<title>features&#45;&gt;numeric_features</title>
<path fill="none" stroke="black" d="M195.21,-292.87C179.67,-282.56 158.83,-268.73 141.42,-257.18"/>
<polygon fill="black" stroke="black" points="142.94,-253.99 132.68,-251.38 139.07,-259.82 142.94,-253.99"/>
</g>
<!-- categorical_features -->
<g id="node3" class="node">
<title>categorical_features</title>
<ellipse fill="none" stroke="black" cx="329" cy="-234" rx="104.78" ry="18"/>
<text text-anchor="middle" x="329" y="-230.3" font-family="Times,serif" font-size="14.00">categorical_features</text>
</g>
<!-- features&#45;&gt;categorical_features -->
<g id="edge2" class="edge">
<title>features&#45;&gt;categorical_features</title>
<path fill="none" stroke="black" d="M241,-292.87C256.57,-282.63 277.42,-268.92 294.91,-257.42"/>
<polygon fill="black" stroke="black" points="297.28,-260.05 303.71,-251.63 293.43,-254.2 297.28,-260.05"/>
</g>
<!-- SimpleImputer -->
<g id="node4" class="node">
<title>SimpleImputer</title>
<ellipse fill="none" stroke="black" cx="110" cy="-162" rx="80.69" ry="18"/>
<text text-anchor="middle" x="110" y="-158.3" font-family="Times,serif" font-size="14.00">SimpleImputer</text>
</g>
<!-- numeric_features&#45;&gt;SimpleImputer -->
<g id="edge3" class="edge">
<title>numeric_features&#45;&gt;SimpleImputer</title>
<path fill="none" stroke="black" d="M108.49,-215.7C108.71,-207.98 108.98,-198.71 109.23,-190.11"/>
<polygon fill="black" stroke="black" points="112.72,-190.2 109.51,-180.1 105.73,-190 112.72,-190.2"/>
</g>
<!-- OneHotEncoder -->
<g id="node6" class="node">
<title>OneHotEncoder</title>
<ellipse fill="none" stroke="black" cx="319" cy="-162" rx="85.29" ry="18"/>
<text text-anchor="middle" x="319" y="-158.3" font-family="Times,serif" font-size="14.00">OneHotEncoder</text>
</g>
<!-- categorical_features&#45;&gt;OneHotEncoder -->
<g id="edge6" class="edge">
<title>categorical_features&#45;&gt;OneHotEncoder</title>
<path fill="none" stroke="black" d="M326.53,-215.7C325.43,-207.98 324.1,-198.71 322.87,-190.11"/>
<polygon fill="black" stroke="black" points="326.32,-189.51 321.44,-180.1 319.39,-190.5 326.32,-189.51"/>
</g>
<!-- StandardScaler -->
<g id="node5" class="node">
<title>StandardScaler</title>
<ellipse fill="none" stroke="black" cx="114" cy="-90" rx="83.39" ry="18"/>
<text text-anchor="middle" x="114" y="-86.3" font-family="Times,serif" font-size="14.00">StandardScaler</text>
</g>
<!-- SimpleImputer&#45;&gt;StandardScaler -->
<g id="edge4" class="edge">
<title>SimpleImputer&#45;&gt;StandardScaler</title>
<path fill="none" stroke="black" d="M110.99,-143.7C111.43,-135.98 111.96,-126.71 112.45,-118.11"/>
<polygon fill="black" stroke="black" points="115.95,-118.29 113.02,-108.1 108.96,-117.89 115.95,-118.29"/>
</g>
<!-- LogisticRegression -->
<g id="node8" class="node">
<title>LogisticRegression</title>
<ellipse fill="none" stroke="black" cx="213" cy="-18" rx="98.58" ry="18"/>
<text text-anchor="middle" x="213" y="-14.3" font-family="Times,serif" font-size="14.00">LogisticRegression</text>
</g>
<!-- StandardScaler&#45;&gt;LogisticRegression -->
<g id="edge5" class="edge">
<title>StandardScaler&#45;&gt;LogisticRegression</title>
<path fill="none" stroke="black" d="M137.21,-72.59C150.27,-63.35 166.78,-51.68 181.05,-41.59"/>
<polygon fill="black" stroke="black" points="183.45,-44.18 189.59,-35.55 179.41,-38.47 183.45,-44.18"/>
</g>
<!-- TruncatedSVD -->
<g id="node7" class="node">
<title>TruncatedSVD</title>
<ellipse fill="none" stroke="black" cx="310" cy="-90" rx="77.99" ry="18"/>
<text text-anchor="middle" x="310" y="-86.3" font-family="Times,serif" font-size="14.00">TruncatedSVD</text>
</g>
<!-- OneHotEncoder&#45;&gt;TruncatedSVD -->
<g id="edge7" class="edge">
<title>OneHotEncoder&#45;&gt;TruncatedSVD</title>
<path fill="none" stroke="black" d="M316.78,-143.7C315.78,-135.98 314.59,-126.71 313.49,-118.11"/>
<polygon fill="black" stroke="black" points="316.95,-117.58 312.2,-108.1 310,-118.47 316.95,-117.58"/>
</g>
<!-- TruncatedSVD&#45;&gt;LogisticRegression -->
<g id="edge8" class="edge">
<title>TruncatedSVD&#45;&gt;LogisticRegression</title>
<path fill="none" stroke="black" d="M287.5,-72.76C274.71,-63.53 258.49,-51.83 244.46,-41.7"/>
<polygon fill="black" stroke="black" points="246.21,-38.65 236.05,-35.63 242.11,-44.32 246.21,-38.65"/>
</g>
</g>
</svg>
