<?xml version="1.0" encoding="UTF-8" standalone="no"?>
<!DOCTYPE svg PUBLIC "-//W3C//DTD SVG 1.1//EN"
 "http://www.w3.org/Graphics/SVG/1.1/DTD/svg11.dtd">
<!-- Generated by graphviz version 2.43.0 (0)
 -->
<!-- Title: %3 Pages: 1 -->
<svg width="130pt" height="332pt"
 viewBox="0.00 0.00 130.19 332.00" xmlns="http://www.w3.org/2000/svg" xmlns:xlink="http://www.w3.org/1999/xlink">
<g id="graph0" class="graph" transform="scale(1 1) rotate(0) translate(4 328)">
<title>%3</title>
<polygon fill="white" stroke="transparent" points="-4,4 -4,-328 126.19,-328 126.19,4 -4,4"/>
<!-- x_float32 -->
<g id="node1" class="node">
<title>x_float32</title>
<ellipse fill="none" stroke="black" cx="61.09" cy="-306" rx="52.79" ry="18"/>
<text text-anchor="middle" x="61.09" y="-302.3" font-family="Times,serif" font-size="14.00">x_float32</text>
</g>
<!-- normalizer -->
<g id="node2" class="node">
<title>normalizer</title>
<ellipse fill="none" stroke="black" cx="61.09" cy="-234" rx="61.19" ry="18"/>
<text text-anchor="middle" x="61.09" y="-230.3" font-family="Times,serif" font-size="14.00">normalizer</text>
</g>
<!-- x_float32&#45;&gt;normalizer -->
<g id="edge1" class="edge">
<title>x_float32&#45;&gt;normalizer</title>
<path fill="none" stroke="black" d="M61.09,-287.7C61.09,-279.98 61.09,-270.71 61.09,-262.11"/>
<polygon fill="black" stroke="black" points="64.59,-262.1 61.09,-252.1 57.59,-262.1 64.59,-262.1"/>
</g>
<!-- y_double -->
<g id="node3" class="node">
<title>y_double</title>
<ellipse fill="none" stroke="black" cx="61.09" cy="-162" rx="51.99" ry="18"/>
<text text-anchor="middle" x="61.09" y="-158.3" font-family="Times,serif" font-size="14.00">y_double</text>
</g>
<!-- normalizer&#45;&gt;y_double -->
<g id="edge2" class="edge">
<title>normalizer&#45;&gt;y_double</title>
<path fill="none" stroke="black" d="M61.09,-215.7C61.09,-207.98 61.09,-198.71 61.09,-190.11"/>
<polygon fill="black" stroke="black" points="64.59,-190.1 61.09,-180.1 57.59,-190.1 64.59,-190.1"/>
</g>
<!-- dtree -->
<g id="node4" class="node">
<title>dtree</title>
<ellipse fill="none" stroke="black" cx="61.09" cy="-90" rx="36" ry="18"/>
<text text-anchor="middle" x="61.09" y="-86.3" font-family="Times,serif" font-size="14.00">dtree</text>
</g>
<!-- y_double&#45;&gt;dtree -->
<g id="edge3" class="edge">
<title>y_double&#45;&gt;dtree</title>
<path fill="none" stroke="black" d="M61.09,-143.7C61.09,-135.98 61.09,-126.71 61.09,-118.11"/>
<polygon fill="black" stroke="black" points="64.59,-118.1 61.09,-108.1 57.59,-118.1 64.59,-118.1"/>
</g>
<!-- z_double -->
<g id="node5" class="node">
<title>z_double</title>
<ellipse fill="none" stroke="black" cx="61.09" cy="-18" rx="51.19" ry="18"/>
<text text-anchor="middle" x="61.09" y="-14.3" font-family="Times,serif" font-size="14.00">z_double</text>
</g>
<!-- dtree&#45;&gt;z_double -->
<g id="edge4" class="edge">
<title>dtree&#45;&gt;z_double</title>
<path fill="none" stroke="black" d="M61.09,-71.7C61.09,-63.98 61.09,-54.71 61.09,-46.11"/>
<polygon fill="black" stroke="black" points="64.59,-46.1 61.09,-36.1 57.59,-46.1 64.59,-46.1"/>
</g>
</g>
</svg>
